<svg width="60" height="60" viewBox="0 0 60 60" fill="none" xmlns="http://www.w3.org/2000/svg">
<path fill-rule="evenodd" clip-rule="evenodd" d="M5 30C5 16.1925 16.1925 5 30 5C43.8075 5 55 16.1925 55 30C55 43.8075 43.8075 55 30 55C16.1925 55 5 43.8075 5 30ZM30 10C24.6957 10 19.6086 12.1071 15.8579 15.8579C12.1071 19.6086 10 24.6957 10 30C10 35.3043 12.1071 40.3914 15.8579 44.1421C19.6086 47.8929 24.6957 50 30 50C35.3043 50 40.3914 47.8929 44.1421 44.1421C47.8929 40.3914 50 35.3043 50 30C50 24.6957 47.8929 19.6086 44.1421 15.8579C40.3914 12.1071 35.3043 10 30 10Z" fill="#34495E" fill-opacity="0.6"/>
<path fill-rule="evenodd" clip-rule="evenodd" d="M32.5 17.5C32.5 16.837 32.2366 16.2011 31.7678 15.7322C31.2989 15.2634 30.663 15 30 15C29.337 15 28.7011 15.2634 28.2322 15.7322C27.7634 16.2011 27.5 16.837 27.5 17.5V27.5H17.5C16.837 27.5 16.2011 27.7634 15.7322 28.2322C15.2634 28.7011 15 29.337 15 30C15 30.663 15.2634 31.2989 15.7322 31.7678C16.2011 32.2366 16.837 32.5 17.5 32.5H27.5V42.5C27.5 43.163 27.7634 43.7989 28.2322 44.2678C28.7011 44.7366 29.337 45 30 45C30.663 45 31.2989 44.7366 31.7678 44.2678C32.2366 43.7989 32.5 43.163 32.5 42.5V32.5H42.5C43.163 32.5 43.7989 32.2366 44.2678 31.7678C44.7366 31.2989 45 30.663 45 30C45 29.337 44.7366 28.7011 44.2678 28.2322C43.7989 27.7634 43.163 27.5 42.5 27.5H32.5V17.5Z" fill="#34495E" fill-opacity="0.6"/>
</svg>
