<svg width="102" height="51" viewBox="0 0 102 51" fill="none" xmlns="http://www.w3.org/2000/svg">
<path d="M9.352 34.18C8.464 34.18 7.828 33.988 7.444 33.604C7.06 33.196 6.868 32.44 6.868 31.336C6.868 30.592 6.94 29.692 7.084 28.636C7.228 27.58 7.48 25.984 7.84 23.848C7.888 23.56 8.08 22.396 8.416 20.356C8.752 18.292 9.052 16.132 9.316 13.876C9.556 11.956 9.676 10.516 9.676 9.556C9.676 8.476 9.28 7.936 8.488 7.936C7.888 7.936 7.132 8.26 6.22 8.908C5.332 9.532 4.372 10.54 3.34 11.932C3.004 12.388 2.632 12.616 2.224 12.616C1.888 12.616 1.588 12.46 1.324 12.148C1.084 11.812 0.964 11.44 0.964 11.032C0.964 10.624 1.036 10.24 1.18 9.88C1.324 9.496 1.588 9.04 1.972 8.512C3.148 6.904 4.456 5.668 5.896 4.804C7.336 3.916 8.848 3.472 10.432 3.472C11.752 3.472 12.736 3.88 13.384 4.696C14.056 5.512 14.392 6.7 14.392 8.26C14.392 9.652 14.2 11.668 13.816 14.308C15.016 10.756 16.54 8.068 18.388 6.244C20.236 4.396 22.408 3.472 24.904 3.472C26.872 3.472 28.348 4.036 29.332 5.164C30.34 6.268 30.844 7.756 30.844 9.628C30.844 10.684 30.688 11.968 30.376 13.48L28.18 23.776C27.94 24.976 27.82 26.008 27.82 26.872C27.82 27.88 28.048 28.636 28.504 29.14C28.984 29.644 29.644 29.896 30.484 29.896C31.276 29.896 32.044 29.632 32.788 29.104C33.556 28.576 34.456 27.7 35.488 26.476C35.776 26.14 36.1 25.972 36.46 25.972C36.772 25.972 37.012 26.116 37.18 26.404C37.372 26.692 37.468 27.088 37.468 27.592C37.468 28.528 37.24 29.272 36.784 29.824C35.536 31.336 34.3 32.44 33.076 33.136C31.852 33.832 30.568 34.18 29.224 34.18C27.184 34.18 25.588 33.58 24.436 32.38C23.284 31.156 22.708 29.524 22.708 27.484C22.708 26.692 22.768 25.828 22.888 24.892C23.032 23.956 23.26 22.768 23.572 21.328L25.012 14.74C25.06 14.524 25.144 14.14 25.264 13.588C25.384 13.036 25.48 12.52 25.552 12.04C25.624 11.536 25.66 11.044 25.66 10.564C25.66 9.796 25.444 9.184 25.012 8.728C24.58 8.272 23.968 8.044 23.176 8.044C21.736 8.044 20.296 8.812 18.856 10.348C17.416 11.884 16.084 14.368 14.86 17.8C13.636 21.208 12.676 25.576 11.98 30.904C11.812 32.128 11.56 32.98 11.224 33.46C10.912 33.94 10.288 34.18 9.352 34.18ZM52.9044 22.948C53.2164 22.948 53.4564 23.104 53.6244 23.416C53.7924 23.728 53.8764 24.124 53.8764 24.604C53.8764 25.756 53.5284 26.44 52.8324 26.656C51.3924 27.16 49.8084 27.448 48.0804 27.52C47.6244 29.536 46.7244 31.156 45.3804 32.38C44.0364 33.58 42.5124 34.18 40.8084 34.18C39.3684 34.18 38.1324 33.832 37.1004 33.136C36.0924 32.44 35.3244 31.516 34.7964 30.364C34.2684 29.212 34.0044 27.964 34.0044 26.62C34.0044 24.796 34.3524 23.176 35.0484 21.76C35.7444 20.32 36.7044 19.204 37.9284 18.412C39.1524 17.596 40.5084 17.188 41.9964 17.188C43.8204 17.188 45.2844 17.824 46.3884 19.096C47.5164 20.344 48.1764 21.892 48.3684 23.74C49.4964 23.668 50.8404 23.428 52.4004 23.02C52.5924 22.972 52.7604 22.948 52.9044 22.948ZM41.0964 30.364C41.8644 30.364 42.5244 30.052 43.0764 29.428C43.6524 28.804 44.0364 27.904 44.2284 26.728C43.4844 26.224 42.9084 25.564 42.5004 24.748C42.1164 23.932 41.9244 23.068 41.9244 22.156C41.9244 21.772 41.9604 21.388 42.0324 21.004H41.8524C40.8924 21.004 40.0884 21.472 39.4404 22.408C38.8164 23.32 38.5044 24.616 38.5044 26.296C38.5044 27.616 38.7564 28.624 39.2604 29.32C39.7884 30.016 40.4004 30.364 41.0964 30.364ZM67.7567 25.972C68.0687 25.972 68.3087 26.116 68.4767 26.404C68.6687 26.692 68.7647 27.088 68.7647 27.592C68.7647 28.552 68.5367 29.296 68.0807 29.824C67.0487 31.096 65.9207 32.14 64.6967 32.956C63.4727 33.772 62.0687 34.18 60.4847 34.18C55.5887 34.18 53.1407 30.736 53.1407 23.848C53.1407 22.792 53.1767 21.724 53.2487 20.644H51.8447C51.1247 20.644 50.6327 20.512 50.3687 20.248C50.1287 19.984 50.0087 19.564 50.0087 18.988C50.0087 17.644 50.5487 16.972 51.6287 16.972H53.6807C54.0887 14.332 54.7127 11.92 55.5527 9.736C56.3927 7.552 57.4007 5.812 58.5767 4.516C59.7767 3.22 61.0607 2.572 62.4287 2.572C63.4367 2.572 64.2287 3.016 64.8047 3.904C65.3807 4.792 65.6687 5.908 65.6687 7.252C65.6687 10.972 64.1087 14.212 60.9887 16.972H65.0207C65.4047 16.972 65.6807 17.056 65.8487 17.224C66.0167 17.392 66.1007 17.704 66.1007 18.16C66.1007 19.816 64.7447 20.644 62.0327 20.644H57.6407C57.5927 21.844 57.5687 22.78 57.5687 23.452C57.5687 25.948 57.8567 27.7 58.4327 28.708C59.0327 29.716 59.9687 30.22 61.2407 30.22C62.2727 30.22 63.1847 29.908 63.9767 29.284C64.7687 28.66 65.7047 27.724 66.7847 26.476C67.0727 26.14 67.3967 25.972 67.7567 25.972ZM61.4567 6.028C61.0967 6.028 60.6887 6.484 60.2327 7.396C59.8007 8.284 59.3807 9.532 58.9727 11.14C58.5887 12.724 58.2647 14.488 58.0007 16.432C59.4167 15.208 60.4727 13.84 61.1687 12.328C61.8887 10.792 62.2487 9.4 62.2487 8.152C62.2487 6.736 61.9847 6.028 61.4567 6.028ZM70.5495 14.848C69.5415 14.848 68.7855 14.62 68.2815 14.164C67.7775 13.684 67.5255 13.024 67.5255 12.184C67.5255 11.344 67.8495 10.648 68.4975 10.096C69.1695 9.52 69.9975 9.232 70.9815 9.232C71.8695 9.232 72.5895 9.448 73.1415 9.88C73.6935 10.312 73.9695 10.924 73.9695 11.716C73.9695 12.676 73.6575 13.444 73.0335 14.02C72.4095 14.572 71.5815 14.848 70.5495 14.848ZM70.2615 34.18C68.7015 34.18 67.5615 33.628 66.8415 32.524C66.1455 31.42 65.7975 29.956 65.7975 28.132C65.7975 27.052 65.9295 25.672 66.1935 23.992C66.4815 22.288 66.8415 20.704 67.2735 19.24C67.4895 18.472 67.7775 17.944 68.1375 17.656C68.4975 17.368 69.0735 17.224 69.8655 17.224C71.0895 17.224 71.7015 17.632 71.7015 18.448C71.7015 19.048 71.4735 20.44 71.0175 22.624C70.4415 25.264 70.1535 27.052 70.1535 27.988C70.1535 28.708 70.2495 29.26 70.4415 29.644C70.6335 30.028 70.9575 30.22 71.4135 30.22C71.8455 30.22 72.3855 29.92 73.0335 29.32C73.6815 28.72 74.5455 27.772 75.6255 26.476C75.9135 26.14 76.2375 25.972 76.5975 25.972C76.9095 25.972 77.1495 26.116 77.3175 26.404C77.5095 26.692 77.6055 27.088 77.6055 27.592C77.6055 28.552 77.3775 29.296 76.9215 29.824C74.5455 32.728 72.3255 34.18 70.2615 34.18ZM88.7053 23.92C89.3773 23.92 89.7133 24.424 89.7133 25.432C89.7133 27.328 88.2253 28.276 85.2493 28.276C84.6733 28.276 83.8453 28.168 82.7653 27.952C83.0773 29.44 83.3293 31.096 83.5213 32.92C83.7373 34.72 83.8453 36.208 83.8453 37.384C83.8453 39.976 83.4253 41.956 82.5853 43.324C81.7453 44.692 80.6413 45.376 79.2733 45.376C77.5453 45.376 76.3093 44.152 75.5653 41.704C74.8453 39.256 74.4853 35.56 74.4853 30.616C74.4853 26.008 74.9773 21.34 75.9613 16.612C76.9693 11.86 78.3373 7.936 80.0653 4.84C81.8173 1.72 83.7373 0.159998 85.8253 0.159998C86.9533 0.159998 87.8293 0.663998 88.4533 1.672C89.1013 2.68 89.4253 4.036 89.4253 5.74C89.4253 11.38 86.0533 17.524 79.3093 24.172C79.0693 26.524 78.9493 28.588 78.9493 30.364C78.9493 32.836 79.0333 35.368 79.2013 37.96C79.3693 40.576 79.6453 41.884 80.0293 41.884C80.7493 41.884 81.1093 40.636 81.1093 38.14C81.1093 36.268 80.9773 34.456 80.7133 32.704C80.4733 30.952 80.1373 29.104 79.7053 27.16C79.6813 26.848 79.7773 26.452 79.9933 25.972C80.2333 25.492 80.5213 25.072 80.8573 24.712C81.1933 24.352 81.4933 24.172 81.7573 24.172C82.2373 24.172 82.8133 24.196 83.4853 24.244C83.7013 24.268 83.9533 24.28 84.2413 24.28C85.2013 24.28 86.2693 24.196 87.4453 24.028C87.6373 24.004 87.8413 23.98 88.0573 23.956C88.2733 23.932 88.4893 23.92 88.7053 23.92ZM85.0693 3.724C84.6373 3.724 84.0973 4.456 83.4493 5.92C82.8253 7.384 82.2013 9.328 81.5773 11.752C80.9533 14.152 80.4133 16.696 79.9573 19.384C81.8773 17.2 83.3533 14.932 84.3853 12.58C85.4173 10.204 85.9453 7.984 85.9693 5.92C85.9693 4.456 85.6693 3.724 85.0693 3.724ZM99.5975 17.224C100.15 17.224 100.534 17.296 100.75 17.44C100.966 17.584 101.074 17.824 101.074 18.16C101.074 18.736 100.762 20.788 100.138 24.316C99.5855 27.7 99.2615 29.704 99.1655 30.328C98.2775 36.496 97.0535 41.38 95.4935 44.98C93.9335 48.58 91.8575 50.38 89.2655 50.38C88.0415 50.38 87.0455 49.996 86.2775 49.228C85.5095 48.484 85.1255 47.5 85.1255 46.276C85.1255 45.148 85.3775 43.996 85.8815 42.82C86.4095 41.644 87.3695 40.288 88.7615 38.752C90.1775 37.24 92.1695 35.5 94.7375 33.532L94.8455 32.704C95.0135 31.816 95.2055 30.544 95.4215 28.888C94.9415 30.616 94.2695 31.936 93.4055 32.848C92.5415 33.736 91.6295 34.18 90.6695 34.18C89.5895 34.18 88.7015 33.688 88.0055 32.704C87.3335 31.696 86.9975 30.448 86.9975 28.96C86.9975 27.16 87.1175 25.516 87.3575 24.028C87.5975 22.516 87.9935 20.92 88.5455 19.24C88.7855 18.52 89.1215 18.004 89.5535 17.692C89.9855 17.38 90.6695 17.224 91.6055 17.224C92.1335 17.224 92.4935 17.308 92.6855 17.476C92.9015 17.644 93.0095 17.896 93.0095 18.232C93.0095 18.424 92.8775 19.072 92.6135 20.176C92.3735 21.064 92.1815 21.868 92.0375 22.588C91.8455 23.572 91.6775 24.52 91.5335 25.432C91.3895 26.32 91.3175 27.052 91.3175 27.628C91.3175 28.54 91.5695 28.996 92.0735 28.996C92.4335 28.996 92.8775 28.636 93.4055 27.916C93.9575 27.196 94.5335 26.104 95.1335 24.64C95.7575 23.176 96.3575 21.376 96.9335 19.24C97.1255 18.52 97.4135 18.004 97.7975 17.692C98.2055 17.38 98.8055 17.224 99.5975 17.224ZM89.6615 46.888C90.2615 46.888 90.9335 46.192 91.6775 44.8C92.4215 43.408 93.1655 41.092 93.9095 37.852C92.0615 39.412 90.7175 40.828 89.8775 42.1C89.0615 43.396 88.6535 44.524 88.6535 45.484C88.6535 45.892 88.7255 46.228 88.8695 46.492C89.0375 46.756 89.3015 46.888 89.6615 46.888Z" fill="white" fill-opacity="0.7"/>
</svg>
